<svg width="1479" height="1211" viewBox="0 0 1479 1211" fill="none" xmlns="http://www.w3.org/2000/svg">
<g filter="url(#filter0_d_16_13)">
<path fill-rule="evenodd" clip-rule="evenodd" d="M1393.43 1024.4C1422 1017.62 1453.88 1036.39 1469.84 1061.05C1484.25 1083.3 1469.21 1111.11 1466.64 1137.51C1464.5 1159.49 1473.19 1186.22 1456.26 1200.38C1439.55 1214.36 1414.89 1202.44 1393.43 1198.73C1377.24 1195.94 1362.05 1192 1349.09 1181.88C1333.81 1169.95 1315.6 1156.89 1315.01 1137.51C1314.42 1117.9 1335.15 1106.48 1346.33 1090.37C1362.33 1067.28 1366.12 1030.88 1393.43 1024.4Z" fill="#B8D8E3"/>
</g>
<g filter="url(#filter1_d_16_13)">
<path fill-rule="evenodd" clip-rule="evenodd" d="M89.9916 1051.18C110.536 1048.44 131.846 1049.9 148.867 1061.76C169.289 1075.98 191.633 1095.91 189.906 1120.78C188.205 1145.27 162.512 1160.02 141.202 1172.12C125.676 1180.93 107.724 1179.48 89.9916 1177.5C74.9016 1175.81 61.9183 1169.91 49.0652 1161.81C30.3294 1150 1.08294 1142.94 0.0282054 1120.78C-1.02227 1098.71 27.513 1089.14 44.9644 1075.64C59.0137 1064.77 72.4011 1053.53 89.9916 1051.18Z" fill="#B8D8E3"/>
</g>
<g filter="url(#filter2_d_16_13)">
<path fill-rule="evenodd" clip-rule="evenodd" d="M1360.6 20.8308C1379.02 24.865 1396.68 25.9403 1413.1 35.1802C1438.52 49.4789 1478.62 58.3805 1479 87.4373C1479.37 116.426 1436.39 121.968 1414.48 141.065C1395.35 157.729 1385.6 186.024 1360.6 190.605C1332.57 195.74 1301.22 186.568 1282.4 165.265C1264.27 144.735 1270.16 114.764 1269.49 87.4373C1268.79 58.9554 1255.41 22.5736 1278.48 5.70803C1301.81 -11.3418 1332.34 14.6434 1360.6 20.8308Z" fill="#B8D8E3"/>
</g>
<g filter="url(#filter3_d_16_13)">
<path fill-rule="evenodd" clip-rule="evenodd" d="M151.135 366.298C164.653 369.26 177.604 370.05 189.654 376.835C208.301 387.336 237.721 393.873 237.998 415.212C238.275 436.501 206.742 440.57 190.664 454.594C176.633 466.832 169.474 487.612 151.135 490.975C130.574 494.747 107.57 488.011 93.7677 472.367C80.4657 457.289 84.7844 435.28 84.2918 415.212C83.7785 394.295 73.9665 367.577 90.892 355.192C108.002 342.671 130.401 361.754 151.135 366.298Z" fill="#B8D8E3"/>
</g>
<defs>
<filter id="filter0_d_16_13" x="1315" y="1023" width="161" height="188" filterUnits="userSpaceOnUse" color-interpolation-filters="sRGB">
<feFlood flood-opacity="0" result="BackgroundImageFix"/>
<feColorMatrix in="SourceAlpha" type="matrix" values="0 0 0 0 0 0 0 0 0 0 0 0 0 0 0 0 0 0 127 0" result="hardAlpha"/>
<feOffset dy="4"/>
<feComposite in2="hardAlpha" operator="out"/>
<feColorMatrix type="matrix" values="0 0 0 0 0 0 0 0 0 0 0 0 0 0 0 0 0 0 0.25 0"/>
<feBlend mode="normal" in2="BackgroundImageFix" result="effect1_dropShadow_16_13"/>
<feBlend mode="normal" in="SourceGraphic" in2="effect1_dropShadow_16_13" result="shape"/>
</filter>
<filter id="filter1_d_16_13" x="0" y="1050" width="190" height="133" filterUnits="userSpaceOnUse" color-interpolation-filters="sRGB">
<feFlood flood-opacity="0" result="BackgroundImageFix"/>
<feColorMatrix in="SourceAlpha" type="matrix" values="0 0 0 0 0 0 0 0 0 0 0 0 0 0 0 0 0 0 127 0" result="hardAlpha"/>
<feOffset dy="4"/>
<feComposite in2="hardAlpha" operator="out"/>
<feColorMatrix type="matrix" values="0 0 0 0 0 0 0 0 0 0 0 0 0 0 0 0 0 0 0.25 0"/>
<feBlend mode="normal" in2="BackgroundImageFix" result="effect1_dropShadow_16_13"/>
<feBlend mode="normal" in="SourceGraphic" in2="effect1_dropShadow_16_13" result="shape"/>
</filter>
<filter id="filter2_d_16_13" x="1265" y="0" width="214" height="196" filterUnits="userSpaceOnUse" color-interpolation-filters="sRGB">
<feFlood flood-opacity="0" result="BackgroundImageFix"/>
<feColorMatrix in="SourceAlpha" type="matrix" values="0 0 0 0 0 0 0 0 0 0 0 0 0 0 0 0 0 0 127 0" result="hardAlpha"/>
<feOffset dy="4"/>
<feComposite in2="hardAlpha" operator="out"/>
<feColorMatrix type="matrix" values="0 0 0 0 0 0 0 0 0 0 0 0 0 0 0 0 0 0 0.25 0"/>
<feBlend mode="normal" in2="BackgroundImageFix" result="effect1_dropShadow_16_13"/>
<feBlend mode="normal" in="SourceGraphic" in2="effect1_dropShadow_16_13" result="shape"/>
</filter>
<filter id="filter3_d_16_13" x="81" y="351" width="157" height="145" filterUnits="userSpaceOnUse" color-interpolation-filters="sRGB">
<feFlood flood-opacity="0" result="BackgroundImageFix"/>
<feColorMatrix in="SourceAlpha" type="matrix" values="0 0 0 0 0 0 0 0 0 0 0 0 0 0 0 0 0 0 127 0" result="hardAlpha"/>
<feOffset dy="4"/>
<feComposite in2="hardAlpha" operator="out"/>
<feColorMatrix type="matrix" values="0 0 0 0 0 0 0 0 0 0 0 0 0 0 0 0 0 0 0.25 0"/>
<feBlend mode="normal" in2="BackgroundImageFix" result="effect1_dropShadow_16_13"/>
<feBlend mode="normal" in="SourceGraphic" in2="effect1_dropShadow_16_13" result="shape"/>
</filter>
</defs>
</svg>
